# Blender v2.76 (sub 0) OBJ File: ''
# www.blender.org
o Cube
v -0.729379 -0.588341 -1.305346
v -0.517062 -1.913405 0.177599
v -1.325981 -0.608525 1.459370
v -1.538298 0.716539 -0.023576
v 1.087369 0.147521 -0.907935
v 1.299686 -1.177542 0.575011
v 0.490766 0.127338 1.856781
v 0.278449 1.452402 0.373836
vt 1.000000 0.000000
vt 1.000000 1.000000
vt 0.000000 1.000000
vt 0.000000 0.000000
vn -0.908400 -0.367900 -0.198700
vn 0.908400 0.367900 0.198700
vn 0.404500 -0.652400 -0.640900
vn 0.106200 -0.662500 0.741500
vn -0.404500 0.652400 0.640900
vn -0.106200 0.662500 -0.741500
s off
f 2/1/1 3/2/1 4/3/1
f 8/1/2 7/2/2 6/3/2
f 5/1/3 6/2/3 2/3/3
f 6/1/4 7/2/4 3/3/4
f 7/1/5 8/2/5 4/3/5
f 1/1/6 4/2/6 8/3/6
f 1/4/1 2/1/1 4/3/1
f 5/4/2 8/1/2 6/3/2
f 1/4/3 5/1/3 2/3/3
f 2/4/4 6/1/4 3/3/4
f 3/4/5 7/1/5 4/3/5
f 5/4/6 1/1/6 8/3/6
