# Blender v2.76 (sub 0) OBJ File: ''
# www.blender.org
o Cube
v -0.577515 -0.751009 -1.370444
v -0.915423 -1.590220 0.413244
v -1.486581 0.183537 1.139581
v -1.148672 1.022748 -0.644108
v 1.309175 -0.364343 -0.831100
v 0.971267 -1.203554 0.952589
v 0.400109 0.570203 1.678925
v 0.738017 1.409414 -0.104763
vt 1.000000 0.000000
vt 1.000000 1.000000
vt 0.000000 1.000000
vt 0.000000 0.000000
vn -0.943300 -0.193300 -0.269700
vn 0.943300 0.193300 0.269700
vn 0.285600 -0.886900 -0.363200
vn -0.169000 -0.419600 0.891800
vn -0.285600 0.886900 0.363200
vn 0.169000 0.419600 -0.891800
s off
f 2/1/1 3/2/1 4/3/1
f 5/4/2 8/1/2 7/2/2
f 5/1/3 6/2/3 2/3/3
f 6/1/4 7/2/4 3/3/4
f 7/1/5 8/2/5 4/3/5
f 1/1/6 4/2/6 8/3/6
f 1/4/1 2/1/1 4/3/1
f 6/3/2 5/4/2 7/2/2
f 1/4/3 5/1/3 2/3/3
f 2/4/4 6/1/4 3/3/4
f 3/4/5 7/1/5 4/3/5
f 5/4/6 1/1/6 8/3/6
