# Blender v2.76 (sub 0) OBJ File: ''
# www.blender.org
o Cube
v -0.711416 -0.603138 -1.315832
v -0.562369 -1.886689 0.210694
v -1.355818 -0.520419 1.436968
v -1.504864 0.763132 -0.089559
v 1.118400 0.093857 -0.908435
v 1.267446 -1.189693 0.618092
v 0.473998 0.176577 1.844365
v 0.324951 1.460127 0.317839
vt 1.000000 0.000000
vt 1.000000 1.000000
vt 0.000000 1.000000
vt 0.000000 0.000000
vn -0.914900 -0.348500 -0.203700
vn 0.914900 0.348500 0.203700
vn 0.396700 -0.683100 -0.613100
vn 0.074500 -0.641800 0.763300
vn -0.396700 0.683100 0.613100
vn -0.074500 0.641800 -0.763300
s off
f 2/1/1 3/2/1 4/3/1
f 8/1/2 7/2/2 6/3/2
f 5/1/3 6/2/3 2/3/3
f 2/4/4 6/1/4 7/2/4
f 7/1/5 8/2/5 4/3/5
f 1/1/6 4/2/6 8/3/6
f 1/4/1 2/1/1 4/3/1
f 5/4/2 8/1/2 6/3/2
f 1/4/3 5/1/3 2/3/3
f 3/3/4 2/4/4 7/2/4
f 3/4/5 7/1/5 4/3/5
f 5/4/6 1/1/6 8/3/6
